HIERARCHY
ROOT Hips
{
	OFFSET -0.148888 88.448799 3.733362
	CHANNELS 6 Xposition Yposition Zposition Zrotation Yrotation Xrotation 
	JOINT Spine
	{
		OFFSET 0.000000 8.814246 -2.080107
		CHANNELS 3 Zrotation Yrotation Xrotation
		JOINT Spine1
		{
			OFFSET 0.000000 8.844141 0.000000
			CHANNELS 3 Zrotation Yrotation Xrotation
			JOINT Spine2
			{
				OFFSET -0.000000 11.682268 -0.000000
				CHANNELS 3 Zrotation Yrotation Xrotation
				JOINT Spine3
				{
					OFFSET -0.000000 11.746700 -0.000000
					CHANNELS 3 Zrotation Yrotation Xrotation
					JOINT Neck
					{
						OFFSET 0.000000 17.658264 -0.000000
						CHANNELS 3 Zrotation Yrotation Xrotation
						JOINT Neck1
						{
							OFFSET 0.000000 5.101515 0.000000
							CHANNELS 3 Zrotation Yrotation Xrotation
							JOINT Head
							{
								OFFSET -0.000000 5.101515 -0.000000
								CHANNELS 3 Zrotation Yrotation Xrotation
								JOINT HeadEnd
								{
									OFFSET 0.000000 11.655085 -0.000000
									CHANNELS 3 Zrotation Yrotation Xrotation
									End Site
									{
										OFFSET 0.000000 0.000000 0.000000
									}
								}
							}
						}
					}
					JOINT RightShoulder
					{
						OFFSET -2.625389 11.175210 -0.000000
						CHANNELS 3 Zrotation Yrotation Xrotation
						JOINT RightArm
						{
							OFFSET -0.000000 10.434715 0.000000
							CHANNELS 3 Zrotation Yrotation Xrotation
							JOINT RightForeArm
							{
								OFFSET 0.000000 29.628420 0.000000
								CHANNELS 3 Zrotation Yrotation Xrotation
								JOINT RightHand
								{
									OFFSET 0.000000 22.857611 0.000000
									CHANNELS 3 Zrotation Yrotation Xrotation
									JOINT RightHandThumb1
									{
										OFFSET -2.867323 3.959563 2.944291
										CHANNELS 3 Zrotation Yrotation Xrotation
										JOINT RightHandThumb2
										{
											OFFSET -0.000000 3.350399 0.000000
											CHANNELS 3 Zrotation Yrotation Xrotation
											JOINT RightHandThumb3
											{
												OFFSET -0.000000 3.756509 0.000000
												CHANNELS 3 Zrotation Yrotation Xrotation
												JOINT RightHandThumb4
												{
													OFFSET 0.000000 3.147345 0.000000
													CHANNELS 3 Zrotation Yrotation Xrotation
													End Site
													{
														OFFSET 0.000000 0.000000 0.000000
													}
												}
											}
										}
									}
									JOINT RightHandIndex1
									{
										OFFSET -0.086752 10.030893 2.345280
										CHANNELS 3 Zrotation Yrotation Xrotation
										JOINT RightHandIndex2
										{
											OFFSET 0.000000 4.061090 -0.000000
											CHANNELS 3 Zrotation Yrotation Xrotation
											JOINT RightHandIndex3
											{
												OFFSET -0.000000 3.248873 0.000000
												CHANNELS 3 Zrotation Yrotation Xrotation
												JOINT RightHandIndex4
												{
													OFFSET 0.000000 2.639709 -0.000000
													CHANNELS 3 Zrotation Yrotation Xrotation
													End Site
													{
														OFFSET 0.000000 0.000000 0.000000
													}
												}
											}
										}
									}
									JOINT RightHandMiddle1
									{
										OFFSET 0.104102 9.502952 0.006768
										CHANNELS 3 Zrotation Yrotation Xrotation
										JOINT RightHandMiddle2
										{
											OFFSET 0.000000 4.568727 0.000000
											CHANNELS 3 Zrotation Yrotation Xrotation
											JOINT RightHandMiddle3
											{
												OFFSET 0.000000 3.654981 -0.000000
												CHANNELS 3 Zrotation Yrotation Xrotation
												JOINT RightHandMiddle4
												{
													OFFSET -0.000000 2.741236 0.000000
													CHANNELS 3 Zrotation Yrotation Xrotation
													End Site
													{
														OFFSET 0.000000 0.000000 0.000000
													}
												}
											}
										}
									}
									JOINT RightHandRing1
									{
										OFFSET 0.086752 8.921708 -2.267442
										CHANNELS 3 Zrotation Yrotation Xrotation
										JOINT RightHandRing2
										{
											OFFSET -0.000000 4.061090 0.000000
											CHANNELS 3 Zrotation Yrotation Xrotation
											JOINT RightHandRing3
											{
												OFFSET -0.000000 3.654981 0.000000
												CHANNELS 3 Zrotation Yrotation Xrotation
												JOINT RightHandRing4
												{
													OFFSET -0.000000 2.741236 0.000000
													CHANNELS 3 Zrotation Yrotation Xrotation
													End Site
													{
														OFFSET 0.000000 0.000000 0.000000
													}
												}
											}
										}
									}
									JOINT RightHandPinky1
									{
										OFFSET -0.173504 7.976997 -4.467199
										CHANNELS 3 Zrotation Yrotation Xrotation
										JOINT RightHandPinky2
										{
											OFFSET -0.000000 3.350399 0.000000
											CHANNELS 3 Zrotation Yrotation Xrotation
											JOINT RightHandPinky3
											{
												OFFSET -0.000000 2.842763 0.000000
												CHANNELS 3 Zrotation Yrotation Xrotation
												JOINT RightHandPinky4
												{
													OFFSET 0.000000 2.639709 -0.000000
													CHANNELS 3 Zrotation Yrotation Xrotation
													End Site
													{
														OFFSET 0.000000 0.000000 0.000000
													}
												}
											}
										}
									}
									JOINT RightForeArmEnd
									{
										OFFSET 0.000000 0.000000 0.000000
										CHANNELS 3 Zrotation Yrotation Xrotation
										End Site
										{
											OFFSET 0.000000 0.000000 0.000000
										}
									}
								}
								JOINT RightArmEnd
								{
									OFFSET 0.000000 0.000000 0.000000
									CHANNELS 3 Zrotation Yrotation Xrotation
									End Site
									{
										OFFSET 0.000000 0.000000 0.000000
									}
								}
							}
						}
					}
					JOINT LeftShoulder
					{
						OFFSET 2.625389 11.175210 0.000000
						CHANNELS 3 Zrotation Yrotation Xrotation
						JOINT LeftArm
						{
							OFFSET -0.000000 10.813635 -0.000000
							CHANNELS 3 Zrotation Yrotation Xrotation
							JOINT LeftForeArm
							{
								OFFSET 0.000000 28.724781 0.000000
								CHANNELS 3 Zrotation Yrotation Xrotation
								JOINT LeftHand
								{
									OFFSET 0.644384 25.716167 -0.328871
									CHANNELS 3 Zrotation Yrotation Xrotation
									JOINT LeftHandThumb1
									{
										OFFSET 2.867323 3.959563 2.944291
										CHANNELS 3 Zrotation Yrotation Xrotation
										JOINT LeftHandThumb2
										{
											OFFSET 0.000000 3.350399 -0.000000
											CHANNELS 3 Zrotation Yrotation Xrotation
											JOINT LeftHandThumb3
											{
												OFFSET 0.000000 3.756509 0.000000
												CHANNELS 3 Zrotation Yrotation Xrotation
												JOINT LeftHandThumb4
												{
													OFFSET -0.000000 3.100000 0.000000
													CHANNELS 3 Zrotation Yrotation Xrotation
													End Site
													{
														OFFSET 0.000000 0.000000 0.000000
													}
												}
											}
										}
									}
									JOINT LeftHandIndex1
									{
										OFFSET 0.086752 10.030893 2.345280
										CHANNELS 3 Zrotation Yrotation Xrotation
										JOINT LeftHandIndex2
										{
											OFFSET -0.000000 4.061090 0.000000
											CHANNELS 3 Zrotation Yrotation Xrotation
											JOINT LeftHandIndex3
											{
												OFFSET 0.000000 3.248873 0.000000
												CHANNELS 3 Zrotation Yrotation Xrotation
												JOINT LeftHandIndex4
												{
													OFFSET -0.000000 2.639709 -0.000000
													CHANNELS 3 Zrotation Yrotation Xrotation
													End Site
													{
														OFFSET 0.000000 0.000000 0.000000
													}
												}
											}
										}
									}
									JOINT LeftHandMiddle1
									{
										OFFSET -0.104102 9.502952 0.006768
										CHANNELS 3 Zrotation Yrotation Xrotation
										JOINT LeftHandMiddle2
										{
											OFFSET -0.000000 4.568727 -0.000000
											CHANNELS 3 Zrotation Yrotation Xrotation
											JOINT LeftHandMiddle3
											{
												OFFSET 0.000000 3.654981 0.000000
												CHANNELS 3 Zrotation Yrotation Xrotation
												JOINT LeftHandMiddle4
												{
													OFFSET 0.000000 2.741236 0.000000
													CHANNELS 3 Zrotation Yrotation Xrotation
													End Site
													{
														OFFSET 0.000000 0.000000 0.000000
													}
												}
											}
										}
									}
									JOINT LeftHandRing1
									{
										OFFSET -0.086752 8.921708 -2.267442
										CHANNELS 3 Zrotation Yrotation Xrotation
										JOINT LeftHandRing2
										{
											OFFSET 0.000000 4.061090 0.000000
											CHANNELS 3 Zrotation Yrotation Xrotation
											JOINT LeftHandRing3
											{
												OFFSET 0.000000 3.654981 0.000000
												CHANNELS 3 Zrotation Yrotation Xrotation
												JOINT LeftHandRing4
												{
													OFFSET -0.000000 2.741236 0.000000
													CHANNELS 3 Zrotation Yrotation Xrotation
													End Site
													{
														OFFSET 0.000000 0.000000 0.000000
													}
												}
											}
										}
									}
									JOINT LeftHandPinky1
									{
										OFFSET 0.173504 7.976997 -4.467199
										CHANNELS 3 Zrotation Yrotation Xrotation
										JOINT LeftHandPinky2
										{
											OFFSET -0.000000 3.350399 -0.000000
											CHANNELS 3 Zrotation Yrotation Xrotation
											JOINT LeftHandPinky3
											{
												OFFSET -0.000000 2.842763 0.000000
												CHANNELS 3 Zrotation Yrotation Xrotation
												JOINT LeftHandPinky4
												{
													OFFSET 0.000000 2.639709 0.000000
													CHANNELS 3 Zrotation Yrotation Xrotation
													End Site
													{
														OFFSET 0.000000 0.000000 0.000000
													}
												}
											}
										}
									}
									JOINT LeftForeArmEnd
									{
										OFFSET 0.000000 0.000000 0.000000
										CHANNELS 3 Zrotation Yrotation Xrotation
										End Site
										{
											OFFSET 0.000000 0.000000 0.000000
										}
									}
								}
								JOINT LeftArmEnd
								{
									OFFSET 0.000000 0.000000 0.000000
									CHANNELS 3 Zrotation Yrotation Xrotation
									End Site
									{
										OFFSET 0.000000 0.000000 0.000000
									}
								}
							}
						}
					}
				}
			}
		}
	}
	JOINT RightUpLeg
	{
		OFFSET -11.289943 -0.000000 -0.000000
		CHANNELS 3 Zrotation Yrotation Xrotation
		JOINT RightLeg
		{
			OFFSET 0.000000 -38.200325 0.000000
			CHANNELS 3 Zrotation Yrotation Xrotation
			JOINT RightFoot
			{
				OFFSET 0.000000 -39.900856 -0.000000
				CHANNELS 3 Zrotation Yrotation Xrotation
				JOINT RightToeBase
				{
					OFFSET 0.000000 0.000000 15.261641
					CHANNELS 3 Zrotation Yrotation Xrotation
					JOINT RightToeBaseEnd
					{
						OFFSET -0.000000 -0.000000 7.370709
						CHANNELS 3 Zrotation Yrotation Xrotation
						End Site
						{
							OFFSET 0.000000 0.000000 0.000000
						}
					}
				}
				JOINT RightLegEnd
				{
					OFFSET 0.000000 0.000000 0.000000
					CHANNELS 3 Zrotation Yrotation Xrotation
					End Site
					{
						OFFSET 0.000000 0.000000 0.000000
					}
				}
			}
			JOINT RightUpLegEnd
			{
				OFFSET 0.000000 0.000000 0.000000
				CHANNELS 3 Zrotation Yrotation Xrotation
				End Site
				{
					OFFSET 0.000000 0.000000 0.000000
				}
			}
		}
	}
	JOINT LeftUpLeg
	{
		OFFSET 11.315661 -0.000000 0.000000
		CHANNELS 3 Zrotation Yrotation Xrotation
		JOINT LeftLeg
		{
			OFFSET -0.000000 -38.200325 -0.000000
			CHANNELS 3 Zrotation Yrotation Xrotation
			JOINT LeftFoot
			{
				OFFSET 0.000000 -39.900856 -0.000000
				CHANNELS 3 Zrotation Yrotation Xrotation
				JOINT LeftToeBase
				{
					OFFSET 0.000000 0.000000 15.261641
					CHANNELS 3 Zrotation Yrotation Xrotation
					JOINT LeftToeBaseEnd
					{
						OFFSET 0.000000 -0.000000 7.539996
						CHANNELS 3 Zrotation Yrotation Xrotation
						End Site
						{
							OFFSET 0.000000 0.000000 0.000000
						}
					}
				}
				JOINT LeftLegEnd
				{
					OFFSET 0.000000 0.000000 0.000000
					CHANNELS 3 Zrotation Yrotation Xrotation
					End Site
					{
						OFFSET 0.000000 0.000000 0.000000
					}
				}
			}
			JOINT LeftUpLegEnd
			{
				OFFSET 0.000000 0.000000 0.000000
				CHANNELS 3 Zrotation Yrotation Xrotation
				End Site
				{
					OFFSET 0.000000 0.000000 0.000000
				}
			}
		}
	}
}
MOTION
Frames: 4
Frame Time: 0.016667
-42.795845 88.094421 20.477310 -1.499944 17.573351 -7.704142 3.543523 -0.744403 6.619366 0.919768 -0.304983 3.151057 -0.770209 -1.207210 1.468361 -2.263722 -0.156122 5.472616 3.453899 1.161243 7.606809 -0.591894 1.978247 -1.270785 -0.636387 0.252337 -19.625982 0.000000 0.000000 0.000000 82.282715 0.555640 7.432377 46.334408 -1.037282 1.733405 1.451514 26.948633 42.662098 -3.338659 14.795058 -8.517453 11.854693 -1.971053 39.257980 -0.000004 0.000026 -29.386868 0.000016 0.000027 -19.950844 0.000009 0.000001 -0.000021 20.899359 0.002728 -6.866517 13.754885 -0.076789 -0.139083 13.609325 -0.080420 -0.155044 -0.000022 0.000040 -0.000011 20.729393 -0.012282 -6.495515 12.723108 -0.042053 -0.042109 13.005297 -0.010255 -0.056102 0.000013 -0.000116 -0.000021 21.050255 -0.015165 -5.916097 13.104587 0.096967 0.080048 13.274010 0.035741 0.078565 -0.000013 0.002350 -0.000005 19.583853 -0.054468 -6.264881 12.204944 0.288241 0.266660 12.195941 0.206619 0.236356 -0.000827 0.000004 -0.000005 0.000000 0.000000 0.000000 0.000000 0.000000 0.000000 -81.756081 -0.785021 4.556537 -57.366245 6.895027 1.215397 -1.787995 -17.369316 52.620388 0.451209 -27.637308 -14.000899 -12.752698 1.801840 38.886131 0.000013 0.000024 -32.467590 -0.000041 -0.000039 -22.236811 0.000864 -0.000016 -0.000781 -28.152502 -0.016937 -10.601087 -18.742823 0.014765 0.236749 -18.973228 0.033951 0.249592 0.000030 -0.001700 -0.000017 -26.843229 -0.024735 -8.707858 -18.666449 -0.012610 0.085759 -18.474785 0.009911 0.096458 0.001096 -0.000015 -0.000000 -28.952679 -0.026405 -6.400982 -19.785124 0.028628 -0.154638 -19.259254 0.001484 -0.114782 -0.000208 0.000034 0.000001 -29.479105 -0.184734 -4.307159 -18.805874 0.007838 -0.170447 -18.849483 0.011729 -0.229131 0.000537 -0.000001 -0.000034 0.000000 0.000000 0.000000 0.000000 0.000000 0.000000 4.448927 -13.796096 6.975151 0.037304 -0.179010 9.076066 -6.157623 -15.730869 17.873253 -0.212787 0.369770 -20.489582 0.000000 0.000000 0.000000 0.000000 0.000000 0.000000 0.000000 0.000000 0.000000 8.980001 -6.612566 -4.096472 0.266073 0.759917 20.121881 -2.679902 7.947363 22.618017 0.788824 -0.125454 -23.873663 0.000000 0.000000 0.000000 0.000000 0.000000 0.000000 0.000000 0.000000 0.000000 
-42.834957 88.127205 20.473001 -1.450639 18.046976 -7.669820 3.567049 -0.736810 6.595763 0.883697 -0.283693 3.145430 -0.847421 -1.066262 1.554246 -2.316162 -0.109425 5.449660 3.568059 0.944097 7.677016 -0.623007 1.721740 -1.241478 -0.539597 0.271502 -19.728624 0.000000 0.000000 0.000000 82.386314 0.533839 7.555605 46.735531 -2.357799 2.131814 1.415704 26.860043 42.544285 -3.009201 14.090092 -8.773758 12.166866 -1.999827 39.118881 -0.000005 0.000025 -30.098295 0.000016 0.000027 -20.442780 0.000009 0.000000 -0.000021 22.398010 -0.002920 -6.983559 14.671529 -0.078302 -0.136102 14.535066 -0.082482 -0.154841 -0.000022 0.000041 -0.000011 22.114878 -0.015208 -6.574084 13.617440 -0.041808 -0.040927 13.901205 -0.010505 -0.055232 0.000013 -0.000130 -0.000021 22.431578 -0.014762 -5.909893 14.005380 0.098486 0.076365 14.192060 0.036198 0.076172 -0.000013 0.002266 -0.000005 20.960705 -0.050241 -6.149646 13.050690 0.293419 0.245836 13.054640 0.210947 0.223236 -0.000781 0.000004 -0.000004 0.000000 0.000000 0.000000 0.000000 0.000000 0.000000 -81.680954 -0.838360 4.538292 -57.581539 5.853018 1.894243 -1.787416 -17.893274 53.916771 -0.350697 -28.942577 -13.168285 -13.499071 1.837356 38.554638 0.000014 0.000024 -34.343525 -0.000046 -0.000038 -23.542372 0.000942 -0.000016 -0.000528 -31.861826 -0.020229 -11.054193 -21.189590 0.027329 0.275088 -21.409588 0.046101 0.284618 0.000030 -0.001651 -0.000017 -30.526445 -0.025876 -8.877728 -21.130135 -0.007350 0.101228 -20.941925 0.013405 0.109294 0.001167 -0.000016 0.000005 -32.820335 -0.025527 -6.147150 -22.477406 0.019541 -0.181882 -21.984558 -0.003579 -0.133624 -0.000262 0.000033 0.000001 -33.277706 -0.183418 -3.606808 -21.502960 -0.017461 -0.252736 -21.539255 -0.008325 -0.290779 0.000483 -0.000001 -0.000034 0.000000 0.000000 0.000000 0.000000 0.000000 0.000000 4.324513 -14.191069 7.150199 0.034678 -0.182875 8.947114 -6.069952 -15.892866 17.766245 -0.206082 0.376458 -20.450230 0.000000 0.000000 0.000000 0.000000 0.000000 0.000000 0.000000 0.000000 0.000000 8.946558 -6.626628 -4.135014 0.267276 0.773375 19.789791 -2.701589 7.654130 22.685276 0.818813 -0.143177 -23.853121 0.000000 0.000000 0.000000 0.000000 0.000000 0.000000 0.000000 0.000000 0.000000 
-42.871361 88.156059 20.475821 -1.411863 18.539978 -7.647810 3.595986 -0.725840 6.571186 0.841000 -0.257799 3.135474 -0.916181 -0.931967 1.654246 -2.363238 -0.066020 5.401325 3.666223 0.724936 7.726119 -0.659788 1.457959 -1.232701 -0.438977 0.297049 -19.812616 0.000000 0.000000 0.000000 82.518036 0.521250 7.689147 47.311790 -3.556844 2.542436 1.377034 26.804344 42.373913 -2.952795 13.514940 -9.114055 12.426299 -2.023401 39.004860 -0.000005 0.000025 -30.677994 0.000017 0.000027 -20.844091 0.000008 0.000000 -0.000021 23.604647 -0.009913 -7.045546 15.425085 -0.080481 -0.128666 15.299922 -0.085075 -0.149918 -0.000022 0.000041 -0.000011 23.232332 -0.018643 -6.617818 14.352831 -0.041815 -0.037403 14.638894 -0.011118 -0.052369 0.000014 -0.000145 -0.000022 23.570320 -0.013632 -5.897322 14.735304 0.100278 0.068640 14.938125 0.037276 0.070580 -0.000013 0.002199 -0.000004 22.126900 -0.044270 -6.063162 13.736144 0.299647 0.214700 13.753043 0.216823 0.201542 -0.000740 0.000004 -0.000004 0.000000 0.000000 0.000000 0.000000 0.000000 0.000000 -81.614487 -0.893541 4.558015 -57.933430 4.831499 2.680202 -1.788798 -18.401951 55.432491 -0.956814 -30.145285 -12.392425 -14.175812 1.862009 38.256794 0.000015 0.000024 -36.054497 -0.000050 -0.000037 -24.734062 0.001016 -0.000016 -0.000269 -35.201492 -0.024990 -11.412143 -23.478708 0.038772 0.303792 -23.689182 0.057150 0.310082 0.000030 -0.001595 -0.000017 -33.890633 -0.027734 -8.980069 -23.446487 -0.002455 0.112446 -23.263447 0.016344 0.118436 0.001241 -0.000016 0.000009 -36.457836 -0.023735 -5.863609 -25.048399 0.010695 -0.204306 -24.589966 -0.008150 -0.148480 -0.000335 0.000033 0.000001 -36.930195 -0.179356 -2.921498 -24.128239 -0.042697 -0.325294 -24.155983 -0.027864 -0.343163 0.000414 -0.000001 -0.000034 0.000000 0.000000 0.000000 0.000000 0.000000 0.000000 4.209447 -14.572989 7.341526 0.031821 -0.186894 8.811054 -5.981076 -16.045210 17.652010 -0.197016 0.382562 -20.408857 0.000000 0.000000 0.000000 0.000000 0.000000 0.000000 0.000000 0.000000 0.000000 8.932193 -6.652393 -4.182650 0.268354 0.786236 19.472918 -2.719652 7.353460 22.755789 0.848224 -0.160406 -23.841684 0.000000 0.000000 0.000000 0.000000 0.000000 0.000000 0.000000 0.000000 0.000000 
-42.906567 88.179382 20.485607 -1.392985 19.050554 -7.636964 3.629788 -0.712726 6.545771 0.791028 -0.227528 3.120902 -0.969316 -0.810118 1.764668 -2.402507 -0.027347 5.328682 3.761172 0.494696 7.753404 -0.703996 1.182543 -1.247011 -0.333499 0.331996 -19.878239 0.000000 0.000000 0.000000 82.686874 0.517621 7.825114 48.082207 -4.676656 2.928807 1.336124 26.770882 42.169376 -3.087597 13.022426 -9.501938 12.638803 -2.042695 38.912685 -0.000006 0.000025 -31.142675 0.000017 0.000027 -21.166094 0.000008 -0.000000 -0.000021 24.558172 -0.018225 -7.067562 16.032423 -0.083855 -0.116926 15.920341 -0.088763 -0.140539 -0.000022 0.000042 -0.000012 24.117224 -0.022585 -6.640343 14.947018 -0.042298 -0.031707 15.235374 -0.012243 -0.047720 0.000014 -0.000160 -0.000023 24.492687 -0.011862 -5.886411 15.314384 0.102687 0.057348 15.530985 0.039130 0.062237 -0.000014 0.002147 -0.000003 23.095036 -0.037017 -6.003366 14.277328 0.307584 0.174806 14.306126 0.224831 0.172779 -0.000708 0.000004 -0.000004 0.000000 0.000000 0.000000 0.000000 0.000000 0.000000 -81.567368 -0.948545 4.609170 -58.399242 3.900761 3.571095 -1.788584 -18.867563 57.189022 -1.442016 -31.203075 -11.679573 -14.776618 1.878607 37.994175 0.000016 0.000024 -37.580563 -0.000054 -0.000035 -25.797081 0.001074 -0.000017 -0.000010 -38.165077 -0.031379 -11.708914 -25.562969 0.048251 0.322369 -25.764656 0.066266 0.325877 0.000030 -0.001527 -0.000017 -36.912834 -0.030325 -9.047379 -25.565252 0.001754 0.119363 -25.388342 0.018531 0.123957 0.001315 -0.000017 0.000012 -39.807354 -0.020995 -5.577016 -27.434237 0.002688 -0.221596 -27.010590 -0.011886 -0.159288 -0.000423 0.000032 0.000001 -40.355110 -0.172983 -2.275884 -26.607805 -0.066142 -0.386939 -26.625898 -0.045501 -0.385997 0.000329 -0.000001 -0.000034 0.000000 0.000000 0.000000 0.000000 0.000000 0.000000 4.116489 -14.936050 7.548448 0.028762 -0.191255 8.663686 -5.895900 -16.187469 17.534904 -0.184432 0.388574 -20.372869 0.000000 0.000000 0.000000 0.000000 0.000000 0.000000 0.000000 0.000000 0.000000 8.946279 -6.693348 -4.250455 0.269558 0.798523 19.180779 -2.735151 7.039508 22.822792 0.876160 -0.176148 -23.839556 0.000000 0.000000 0.000000 0.000000 0.000000 0.000000 0.000000 0.000000 0.000000 
